:SAMPLES-PER-SECOND 30
:FRAME-RANGE 1-2091
:FULLY-SPECIFIED
:DEGREES
66
root  -38.0716 37.791 -135.835 7.03508 -10.1929 -1.92122
RightUpLeg  -27.3216 3.66259 6.19096
RightLeg  5.13256 -20.4343 2.01833
RightFoot  3.77099 0.0389525 -0.0991558
RightToes  5.82063e-011 0 -3.6325e-017
Spine  8.61636 -4.31714 -5.52098
Spine1  0.6954 -6.90526 9.99865
HEad  7.889 28.9147 -6.0008
LeftShoulder1  1.86645 -2.39512 -25.4731
LeftArm  -16.1448 -32.1076 -25.2744
LeftForeArm  30.5684 -1.06613 -15.0929
LeftHand  -0.072082 0.153364 1.59511
RightShoulder  3.19972 2.50979 46.6536
RightArm  21.8985 -11.5161 10.8822
RightForeArm  16.923 -0.85104 18.2583
RightHand  0.537058 3.67445 6.61231
LeftUpLeg  11.3435 12.3383 5.89526
LeftLeg  8.8379 16.6986 -1.83749
LeftFoot  -21.0882 -1.32689 -16.9315
LeftToes  -6.27584e-011 -2.25241e-010 2.80627e-011
67
root  -38.1429 37.6716 -134.47 7.10381 -11.3807 -3.00924
RightUpLeg  -28.7243 -1.82203 10.7595
RightLeg  12.4914 -12.2952 -0.77633
RightFoot  2.72147 0.309147 -2.35408
RightToes  5.82063e-011 0 -3.6325e-017
Spine  9.51803 -4.23863 -3.86442
Spine1  -0.0797834 -6.74513 10.2326
HEad  6.99821 28.5919 -6.30888
LeftShoulder1  1.83878 -2.22793 -25.9298
LeftArm  -18.4628 -33.3427 -25.4995
LeftForeArm  30.9164 -3.72117 -14.1384
LeftHand  -0.09642 -0.0882431 2.07176
RightShoulder  3.29433 2.62402 47.1449
RightArm  20.4194 -10.6066 10.4146
RightForeArm  19.2931 -2.31513 18.232
RightHand  0.554325 3.46467 7.01034
LeftUpLeg  12.86 14.5503 7.79917
LeftLeg  11.5392 14.4857 -1.02502
LeftFoot  -20.4918 -1.53817 -20.5498
LeftToes  -6.27584e-011 -2.25241e-010 2.80627e-011
68
root  -38.2715 37.6258 -133.114 6.82577 -12.9649 -3.72588
RightUpLeg  -28.5193 -4.80005 13.6934
RightLeg  17.0514 -7.21978 -2.31452
RightFoot  0.919977 0.506614 -4.65228
RightToes  5.82063e-011 0 -3.6325e-017
Spine  10.1193 -4.27196 -2.68941
Spine1  -0.181992 -6.63925 10.1994
HEad  6.52289 28.8307 -6.37186
LeftShoulder1  1.80255 -2.05004 -26.3177
LeftArm  -20.3005 -34.2401 -25.211
LeftForeArm  29.8489 -6.47103 -13.0809
LeftHand  -0.113928 -0.0131675 2.47183
RightShoulder  4.1484 4.02947 48.2797
RightArm  17.8994 -9.20726 10.1334
RightForeArm  21.597 -3.16895 18.0647
RightHand  0.472623 3.66253 5.79852
LeftUpLeg  13.5103 23.2541 11.0316
LeftLeg  17.2804 6.16477 1.47597
LeftFoot  -17.89 -1.38387 -25.65
LeftToes  -6.27584e-011 -2.25241e-010 2.80627e-011
69
root  -38.4382 37.6124 -131.821 6.86191 -13.765 -4.1654
RightUpLeg  -27.9978 -5.89946 14.3723
RightLeg  20.5146 -5.61417 -2.49884
RightFoot  -2.10089 0.394828 -5.05483
RightToes  5.82063e-011 0 -3.6325e-017
Spine  10.0396 -4.3797 -1.67794
Spine1  -0.0130676 -6.71625 10.347
HEad  7.84925 27.1747 -5.61296
LeftShoulder1  1.78749 -2.05008 -26.036
LeftArm  -20.8485 -35.1274 -25.978
LeftForeArm  29.7557 -8.32961 -12.2637
LeftHand  -0.132984 -0.208888 2.80437
RightShoulder  4.87273 5.21154 49.0073
RightArm  13.4797 -7.38283 10.9649
RightForeArm  23.1929 -4.131 17.6852
RightHand  0.503482 3.3683 6.42356
LeftUpLeg  10.2708 22.0725 11.2999
LeftLeg  26.3032 6.78531 3.97532
LeftFoot  -11.8299 -0.0559046 -28.9733
LeftToes  -6.27584e-011 -2.25241e-010 2.80627e-011
70
root  -38.5841 37.6042 -130.646 7.01916 -14.3518 -4.83105
RightUpLeg  -27.0881 -7.18954 14.9579
RightLeg  22.7671 -4.03789 -2.05653
RightFoot  -4.77507 0.24602 -4.84588
RightToes  5.82063e-011 0 -3.6325e-017
Spine  10.2601 -4.30443 0.402693
Spine1  -0.636633 -6.14856 9.82214
HEad  9.46142 26.0193 -5.15891
LeftShoulder1  1.71292 -1.8949 -25.56
LeftArm  -14.7476 -35.6721 -27.9124
LeftForeArm  25.3131 -11.6733 -11.2671
LeftHand  -0.136389 -0.365489 2.81315
RightShoulder  5.43073 6.08105 49.6558
RightArm  11.8133 -5.77542 12.2227
RightForeArm  23.1509 -4.5481 17.5262
RightHand  0.484279 3.89701 5.78045
LeftUpLeg  4.32275 18.6138 10.8916
LeftLeg  38.0179 6.97924 6.18747
LeftFoot  -2.54875 1.61805 -20.6514
LeftToes  -6.27584e-011 -2.25241e-010 2.80627e-011
